<svg width="60" height="60" viewBox="0 0 60 60" fill="none" xmlns="http://www.w3.org/2000/svg">
<g clip-path="url(#clip0_5_2)">
<path d="M5.243 44.844L42.378 7.70801L52.277 17.607L15.141 54.742L5.243 44.844Z" fill="white"/>
<path d="M56.521 13.364L57.935 11.95C59.257 10.628 59.985 8.871 59.985 7.001C59.985 5.131 59.257 3.374 57.935 2.052C56.613 0.73 54.855 0 52.985 0C51.115 0 49.358 0.729 48.035 2.051L46.621 3.465L56.521 13.364Z" fill="white"/>
<path d="M4.099 46.527L0.0509964 58.669C-0.0690036 59.028 0.0249964 59.425 0.292996 59.692C0.482996 59.882 0.738996 59.985 0.999996 59.985C1.106 59.985 1.212 59.968 1.316 59.933L13.457 55.886L4.099 46.527Z" fill="white"/>
<path d="M43.793 6.294L45.208 4.879L55.107 14.778L53.692 16.193L43.793 6.294Z" fill="white"/>
</g>
<defs>
<clipPath id="clip0_5_2">
<rect width="60" height="60" fill="white"/>
</clipPath>
</defs>
</svg>
