<svg clip-path="circle()" viewBox="0 0 450 450" fill="none" xmlns="http://www.w3.org/2000/svg">
    <path d="M450 0H0V450H450V0Z" fill="url(#paint0_linear_4_36)" />
    <path
        d="M71.875 71.875V378.125H378.125V71.875H71.875ZM238.541 310.717C238.541 340.522 221.041 354.128 195.545 354.128C172.511 354.128 159.178 342.239 152.342 327.812L175.792 313.659C180.309 321.655 184.411 328.425 194.32 328.425C203.748 328.425 209.764 324.728 209.764 310.312V212.487H238.541V310.717ZM306.616 354.128C279.884 354.128 262.592 341.419 254.181 324.728L277.631 311.198C283.789 321.25 291.85 328.698 306.003 328.698C317.892 328.698 325.559 322.748 325.559 314.48C325.559 304.636 317.761 301.147 304.57 295.339L297.395 292.266C276.614 283.45 262.877 272.305 262.877 248.855C262.877 227.253 279.348 210.847 304.986 210.847C323.306 210.847 336.431 217.202 345.87 233.881L323.448 248.242C318.527 239.427 313.189 235.938 304.92 235.938C296.52 235.938 291.183 241.275 291.183 248.242C291.183 256.861 296.52 260.339 308.891 265.742L316.066 268.816C340.544 279.272 354.281 290.012 354.281 314.064C354.281 339.909 333.905 354.117 306.627 354.117L306.616 354.128Z"
        fill="white" />
    <defs>
        <linearGradient id="paint0_linear_4_36" x1="0" y1="200.217" x2="441.504" y2="200.217"
            gradientUnits="userSpaceOnUse">
            <stop stop-color="#C35183" />
            <stop offset="1" stop-color="#69A5D1" />
        </linearGradient>
    </defs>
</svg>