<svg clip-path="circle()" viewBox="0 0 450 450" fill="none" xmlns="http://www.w3.org/2000/svg">
    <path d="M450 0H0V450H450V0Z" fill="url(#paint0_linear_4_36)" />
    <path
        d="M338.278 170.109C334.64 168.857 330.872 167.672 326.991 166.552C327.629 163.949 328.214 161.38 328.735 158.854C337.279 117.381 331.692 83.97 312.617 72.9698C294.326 62.422 264.412 73.4197 234.201 99.7116C231.296 102.24 228.383 104.916 225.471 107.722C223.531 105.866 221.593 104.072 219.661 102.356C187.999 74.2435 156.263 62.3964 137.206 73.4285C118.932 84.0069 113.521 115.416 121.212 154.72C121.954 158.517 122.822 162.394 123.804 166.335C119.312 167.61 114.976 168.97 110.827 170.416C73.7068 183.358 50 203.641 50 224.679C50 246.409 75.4493 268.203 114.113 281.418C117.164 282.461 120.33 283.447 123.593 284.383C122.534 288.647 121.613 292.824 120.84 296.899C113.507 335.521 119.233 366.188 137.458 376.7C156.283 387.556 187.875 376.397 218.639 349.506C221.07 347.381 223.511 345.127 225.955 342.764C229.124 345.815 232.287 348.703 235.434 351.411C265.232 377.053 294.662 387.408 312.87 376.867C331.676 365.98 337.788 333.036 329.853 292.954C329.247 289.893 328.542 286.766 327.75 283.583C329.969 282.927 332.147 282.25 334.27 281.546C374.465 268.228 400.617 246.699 400.617 224.679C400.617 203.565 376.146 183.145 338.278 170.109ZM329.56 267.328C327.643 267.963 325.675 268.576 323.671 269.171C319.233 255.123 313.245 240.186 305.916 224.753C312.91 209.687 318.667 194.94 322.98 180.984C326.567 182.021 330.048 183.116 333.402 184.271C365.848 195.441 385.639 211.955 385.639 224.679C385.639 238.234 364.265 255.829 329.56 267.328ZM315.159 295.863C318.668 313.587 319.169 329.611 316.845 342.138C314.757 353.394 310.557 360.899 305.365 363.904C294.315 370.3 270.686 361.986 245.202 340.057C242.281 337.543 239.338 334.859 236.386 332.018C246.266 321.213 256.139 308.652 265.776 294.702C282.726 293.198 298.739 290.739 313.262 287.382C313.977 290.267 314.612 293.096 315.159 295.863ZM169.533 362.799C158.738 366.612 150.14 366.721 144.942 363.724C133.883 357.345 129.285 332.722 135.556 299.692C136.275 295.91 137.13 292.024 138.115 288.052C152.478 291.228 168.374 293.514 185.365 294.891C195.066 308.542 205.225 321.09 215.463 332.076C213.226 334.235 210.998 336.291 208.783 338.228C195.179 350.119 181.547 358.556 169.533 362.799ZM118.957 267.245C101.861 261.402 87.7421 253.807 78.0643 245.52C69.3681 238.073 64.9776 230.679 64.9776 224.679C64.9776 211.912 84.0119 195.628 115.758 184.56C119.61 183.217 123.642 181.951 127.826 180.762C132.214 195.034 137.969 209.955 144.915 225.044C137.879 240.357 132.042 255.516 127.612 269.955C124.629 269.098 121.738 268.195 118.957 267.245ZM135.911 151.844C129.322 118.169 133.698 92.766 144.71 86.3915C156.44 79.6008 182.378 89.283 209.716 113.557C211.463 115.109 213.217 116.732 214.977 118.412C204.79 129.351 194.724 141.804 185.108 155.375C168.618 156.903 152.834 159.358 138.321 162.646C137.409 158.976 136.601 155.37 135.911 151.844ZM287.151 189.189C283.682 183.197 280.12 177.346 276.489 171.655C287.676 173.069 298.394 174.946 308.46 177.243C305.438 186.928 301.671 197.054 297.238 207.435C294.058 201.396 290.694 195.308 287.151 189.189ZM225.476 129.117C232.385 136.602 239.303 144.958 246.108 154.025C239.251 153.701 232.308 153.533 225.309 153.533C218.375 153.533 211.484 153.698 204.669 154.016C211.481 145.033 218.459 136.688 225.476 129.117ZM163.405 189.293C159.94 195.302 156.638 201.357 153.508 207.423C149.146 197.079 145.415 186.907 142.367 177.085C152.37 174.846 163.038 173.016 174.153 171.628C170.471 177.372 166.88 183.266 163.405 189.292V189.293ZM174.474 278.799C162.989 277.518 152.161 275.782 142.16 273.605C145.257 263.607 149.071 253.218 153.525 242.651C156.663 248.713 159.978 254.77 163.465 260.793C167.017 266.928 170.697 272.938 174.474 278.799ZM225.89 321.298C218.791 313.638 211.71 305.166 204.795 296.052C211.508 296.315 218.352 296.45 225.309 296.45C232.455 296.45 239.52 296.289 246.473 295.98C239.646 305.258 232.752 313.743 225.89 321.298ZM297.381 242.112C302.067 252.794 306.018 263.129 309.154 272.956C298.988 275.275 288.013 277.143 276.448 278.531C280.088 272.763 283.681 266.811 287.211 260.69C290.783 254.496 294.174 248.293 297.381 242.112ZM274.237 253.207C268.756 262.71 263.129 271.782 257.417 280.345C247.013 281.089 236.264 281.472 225.309 281.472C214.398 281.472 203.784 281.133 193.564 280.47C187.621 271.794 181.872 262.696 176.426 253.289H176.428C170.996 243.907 165.997 234.447 161.468 225.039C165.996 215.61 170.982 206.138 176.382 196.774L176.381 196.776C181.796 187.386 187.494 178.332 193.382 169.711C203.809 168.922 214.502 168.511 225.308 168.511H225.309C236.163 168.511 246.87 168.925 257.294 169.721C263.092 178.279 268.752 187.304 274.188 196.695C279.685 206.191 284.735 215.599 289.303 224.826C284.749 234.212 279.71 243.715 274.237 253.207ZM305.135 85.9459C316.876 92.7167 321.442 120.023 314.065 155.831C313.595 158.116 313.065 160.443 312.49 162.801C297.943 159.445 282.147 156.947 265.609 155.396C255.975 141.676 245.992 129.204 235.971 118.406C238.665 115.814 241.355 113.342 244.035 111.01C269.919 88.4835 294.112 79.5895 305.135 85.9459ZM225.309 193.371C242.6 193.371 256.618 207.388 256.618 224.679C256.618 241.971 242.6 255.988 225.309 255.988C208.017 255.988 194 241.971 194 224.679C194 207.388 208.017 193.371 225.309 193.371Z"
        fill="white" />
    <defs>
        <linearGradient id="paint0_linear_4_36" x1="0" y1="200.217" x2="441.504" y2="200.217"
            gradientUnits="userSpaceOnUse">
            <stop stop-color="#C35183" />
            <stop offset="1" stop-color="#69A5D1" />
        </linearGradient>
    </defs>
</svg>